<svg width="104" height="87" viewBox="0 0 104 87" fill="none" xmlns="http://www.w3.org/2000/svg">
<g clip-path="url(#clip0_67_21)">
<path d="M77.7613 51.7541C76.2059 47.0373 72.8435 42.8777 68.1901 39.9133C63.5366 36.949 57.8491 35.3437 52 35.3437C46.1509 35.3437 40.4633 36.949 35.8099 39.9133C31.1564 42.8777 27.7941 47.0373 26.2386 51.7541L22.532 62.9945C21.8665 65.0126 21.7672 67.1321 22.2419 69.1877C22.7166 71.2432 23.7524 73.1793 25.2686 74.8449C26.7847 76.5105 28.7403 77.8607 30.9828 78.7901C33.2253 79.7195 35.6942 80.2031 38.1968 80.2031H65.8031C68.3058 80.2031 70.7746 79.7195 73.0171 78.7901C75.2596 77.8607 77.2152 76.5105 78.7314 74.8449C80.2476 73.1793 81.2834 71.2432 81.7581 69.1877C82.2327 67.1321 82.1334 65.0126 81.4679 62.9945L77.7613 51.7541ZM73.5603 71.55C72.6545 72.5531 71.482 73.3659 70.1356 73.924C68.7891 74.4821 67.3058 74.7703 65.8031 74.7656H38.1968C36.6952 74.7656 35.2139 74.4755 33.8684 73.9179C32.5228 73.3602 31.3494 72.5501 30.4397 71.5507C29.53 70.5513 28.9085 69.3897 28.6237 68.1563C28.3389 66.923 28.3985 65.6512 28.7978 64.4403L32.5044 53.2002C33.6816 49.6306 36.2261 46.4827 39.7477 44.2394C43.2694 41.996 47.5735 40.7812 52 40.7812C56.4264 40.7812 60.7306 41.996 64.2522 44.2394C67.7738 46.4827 70.3184 49.6306 71.4955 53.2002L75.2021 64.4403C75.6072 65.6508 75.6697 66.9235 75.3848 68.1577C75.0998 69.3919 74.4751 70.5535 73.5603 71.5507V71.55ZM29.6765 39.1347C30.242 36.1781 29.4921 33.0129 27.564 30.2201C25.636 27.4273 22.7337 25.3014 19.3909 24.2327C15.811 23.089 12.1596 23.2711 9.10586 24.7454C3.03507 27.6776 1.43749 34.9042 5.54529 40.8548C7.47274 43.6477 10.3752 45.7741 13.718 46.8422C15.1988 47.3249 16.7728 47.5767 18.3621 47.5849C20.342 47.5909 22.2885 47.1577 24.0031 46.3294C27.055 44.855 29.07 42.2998 29.6765 39.1347ZM23.2578 38.2752C22.9673 39.7925 22.0776 40.9804 20.7526 41.6203C19.4277 42.2603 17.7531 42.3105 16.0367 41.7626C14.0841 41.1388 12.3571 39.8508 11.1737 38.1361C8.89868 34.8396 9.43939 30.8634 12.3559 29.4544C13.089 29.1064 13.9193 28.9271 14.7623 28.9348C15.553 28.9417 16.3356 29.0693 17.0714 29.3115C19.0241 29.9356 20.751 31.2235 21.9344 32.9382C23.1178 34.6528 23.5877 36.5487 23.2578 38.2752ZM30.3806 27.8701C32.6885 29.4135 35.324 30.2172 37.9892 30.217C38.7875 30.2168 39.5835 30.145 40.3636 30.0028C47.2135 28.7571 51.3668 22.281 49.622 15.5665C48.8034 12.4152 46.8132 9.65038 44.0182 7.78107C41.0251 5.77939 37.4798 5.02171 34.0352 5.64838C27.1854 6.89391 23.0321 13.37 24.7768 20.0844C25.5956 23.236 27.5858 26.0008 30.3806 27.8701ZM35.4156 10.9618C35.7315 10.9049 36.0537 10.8764 36.3768 10.8769C37.585 10.8769 38.8277 11.2723 39.9593 12.0291C41.5919 13.1209 42.7677 14.7876 43.2703 16.7225C44.2371 20.443 42.2737 24.0917 38.9829 24.6902C37.4877 24.962 35.8741 24.5835 34.4396 23.6239C32.8071 22.532 31.6312 20.8652 31.1287 18.9305C30.1616 15.209 32.125 11.5603 35.4156 10.9618ZM94.8941 24.7454C91.8415 23.2711 88.1883 23.089 84.609 24.2327C81.2662 25.301 78.3638 27.4273 76.4363 30.2201C74.5089 33.0129 73.7587 36.1787 74.3238 39.1347C74.9295 42.2998 76.9441 44.855 79.9973 46.3294C81.7119 47.1578 83.6583 47.591 85.6383 47.5849C87.2275 47.5767 88.8015 47.325 90.2823 46.8422C93.6252 45.7741 96.5276 43.6477 98.4551 40.8548C102.562 34.9042 100.965 27.6776 94.8941 24.7454ZM92.8263 38.1361C91.6429 39.8508 89.9159 41.1388 87.9632 41.7626C86.2477 42.3111 84.5727 42.2606 83.2477 41.6203C81.9227 40.9801 81.0336 39.7925 80.7426 38.2752C80.4123 36.5487 80.8819 34.6535 82.0655 32.9397C83.2491 31.2259 84.9759 29.9372 86.9285 29.3131C87.6643 29.0706 88.4469 28.9427 89.2377 28.9357C90.0806 28.9279 90.9109 29.1072 91.6441 29.4553C94.5605 30.8631 95.1019 34.8387 92.8263 38.1361ZM63.6364 30.0028C64.4164 30.145 65.2124 30.2168 66.0107 30.217C68.6757 30.217 71.3123 29.4135 73.6194 27.8701C76.4142 26.0009 78.4044 23.236 79.2232 20.0846C80.9678 13.3701 76.8145 6.89408 69.9648 5.64855C66.5204 5.02222 62.9748 5.77939 59.9818 7.78124C57.1868 9.65038 55.1966 12.4153 54.378 15.5665C52.6331 22.281 56.7864 28.7571 63.6364 30.0028ZM60.7297 16.7217C61.2322 14.7868 62.4081 13.1193 64.0406 12.0283C65.1724 11.2714 66.4149 10.876 67.6231 10.876C67.9462 10.8755 68.2685 10.904 68.5843 10.961C71.8749 11.5594 73.8383 15.209 72.8717 18.9286C72.3687 20.8635 71.1928 22.531 69.5607 23.6222C68.1265 24.5816 66.5139 24.9602 65.0174 24.6885C61.7262 24.0908 59.7628 20.4416 60.7297 16.7217Z" fill="#E4CCCC"/>
</g>
<defs>
<clipPath id="clip0_67_21">
<rect width="104" height="87" fill="white"/>
</clipPath>
</defs>
</svg>
