<svg width="27" height="27" viewBox="0 0 27 27" fill="none" xmlns="http://www.w3.org/2000/svg">
<path d="M23.625 10.1249H22.0275L17.8515 2.81689L15.8985 3.93289L19.4366 10.1249H7.56338L11.1026 3.93289L9.14851 2.81689L4.97251 10.1249H3.37501C3.20209 10.1251 3.03154 10.1651 2.87658 10.2418C2.72161 10.3185 2.5864 10.4299 2.48142 10.5673C2.37644 10.7047 2.30451 10.8645 2.2712 11.0341C2.2379 11.2038 2.24412 11.3789 2.28938 11.5458L5.43826 23.0928C5.56915 23.5684 5.85238 23.988 6.24454 24.2873C6.6367 24.5866 7.11618 24.7491 7.60951 24.7499H19.3916C20.4019 24.7499 21.2951 24.0693 21.5629 23.0905L24.7118 11.5446C24.7576 11.3777 24.7641 11.2024 24.731 11.0325C24.6978 10.8626 24.6258 10.7027 24.5205 10.5652C24.4153 10.4277 24.2797 10.3165 24.1244 10.2401C23.969 10.1637 23.7981 10.1243 23.625 10.1249ZM19.3905 22.4999H7.60951L4.84876 12.3749H22.1513L19.3905 22.4999Z" fill="white"/>
<path d="M10.125 14.625H12.375V20.25H10.125V14.625ZM14.625 14.625H16.875V20.25H14.625V14.625Z" fill="white"/>
</svg>
