<svg width="32" height="30" viewBox="0 0 32 30" fill="none" xmlns="http://www.w3.org/2000/svg">
<g clip-path="url(#clip0_67_38)">
<path d="M15.974 1.875C13.2095 1.875 10.5072 2.64477 8.20863 4.08696C5.91008 5.52915 4.11857 7.579 3.06067 9.97728C2.00276 12.3756 1.72596 15.0146 2.26528 17.5606C2.8046 20.1066 4.1358 22.4452 6.09056 24.2808C8.04531 26.1163 10.5358 27.3664 13.2472 27.8728C15.9585 28.3792 18.7688 28.1193 21.3229 27.1259C23.8769 26.1325 26.0598 24.4503 27.5957 22.2919C29.1315 20.1335 29.9513 17.5959 29.9513 15C29.9513 11.519 28.4787 8.18064 25.8574 5.71922C23.2362 3.25781 19.681 1.875 15.974 1.875ZM13.9772 20.2406L8.98535 15.5531L10.5728 14.0625L13.9772 17.2594L21.3752 10.3125L22.9686 11.7994L13.9772 20.2406Z" fill="#FAFAFA"/>
</g>
<defs>
<clipPath id="clip0_67_38">
<rect width="31.9481" height="30" fill="white"/>
</clipPath>
</defs>
</svg>
