<svg width="105" height="85" viewBox="0 0 105 85" fill="none" xmlns="http://www.w3.org/2000/svg">
<path d="M52.5944 0C35.1381 0 20.9398 10.5619 20.9398 23.5473C20.9398 36.5327 35.1381 47.0946 52.5944 47.0946C70.0507 47.0946 84.2489 36.5327 84.2489 23.5473C84.2489 10.5619 70.0507 0 52.5944 0ZM50.5661 5.63813L47.6991 12.0223L60.3963 11.0328L59.1335 7.87078L62.6944 8.60418V12.1122L68.2566 12.3821L67.1686 9.23398L70.0923 7.97438C76.0699 11.6927 79.866 17.2832 79.866 23.5473C79.866 26.5664 78.9833 29.4289 77.4006 32.0011L71.038 32.8021V38.5038C69.8243 39.3323 68.5123 40.0774 67.118 40.7299L64.3869 37.5695L59.066 38.6491L60.5611 42.9575C57.9782 43.5405 55.2936 43.8359 52.5944 43.8342C45.0428 43.8342 38.2191 41.5637 33.2859 37.8883L38.146 37.3898L41.4113 32.6221L31.0111 28.7541L38.3878 24.0762L31.979 20.1185L25.4307 21.7419C26.1884 15.3211 30.9466 9.76851 37.8475 6.46917L39.2345 14.7209L50.5661 5.63813ZM60.0332 17.2699L51.2259 21.4679L58.9219 26.5565L64.4802 25.3479L63.9669 30.3094L74.1426 28.4011L70.2944 21.9133L64.1381 21.9769L69.6107 18.4785L60.0332 17.2699ZM50.8843 24.5846L46.1812 26.1111L49.5159 27.9557L50.8843 24.5846ZM39.8388 25.1559L36.574 28.0341L45.6192 32.7632L39.8388 25.1559ZM54.3902 26.7472L51.0555 31.3909L59.0933 35.4617L56.2712 32.4719L59.7771 29.3551L54.3902 26.7472ZM4.91047 31.7093C2.76331 31.6845 0.56576 33.7186 0.553098 38.9333C0.534105 46.9308 -0.507573 49.1883 4.46779 58.2332C8.1161 64.8659 9.75215 69.9639 21.4268 74.0834C22.8099 77.7101 22.2579 78.5628 21.3197 81.662C20.4441 84.5554 29.4581 85.0872 36.0595 82.6497C43.1431 79.7755 42.5487 71.862 41.2833 66.4956C39.8116 60.2548 35.1812 58.9577 31.1677 56.292C27.0002 51.8588 26.0304 43.8277 19.2714 40.5879C17.8599 39.9114 10.6589 39.2245 20.5527 57.6039C7.50834 55.2007 9.88437 44.0601 8.94107 35.8118C8.66007 33.3555 6.80487 31.7311 4.91047 31.7093ZM100.278 31.7093C98.3839 31.7311 96.5287 33.3555 96.2477 35.812C95.3044 44.0601 97.6805 55.2007 84.6361 57.6039C94.5301 39.2244 87.3289 39.9114 85.9174 40.5879C79.1584 43.8277 78.1888 51.8588 74.0211 56.2922C70.0078 58.9577 65.377 60.2548 63.9055 66.4956C62.6401 71.862 62.0457 79.7755 69.1293 82.6497C75.7307 85.0871 84.7447 84.5554 83.8688 81.662C82.9309 78.5628 82.3789 77.7101 83.7619 74.0834C95.4366 69.9639 97.0727 64.8659 100.721 58.2332C105.696 49.1883 104.655 46.9309 104.636 38.9335C104.623 33.7186 102.425 31.6845 100.278 31.7093Z" fill="#E4CCCC"/>
</svg>
