<svg width="50" height="40" viewBox="0 0 50 40" fill="none" xmlns="http://www.w3.org/2000/svg">
<path d="M16.25 3.3335H33.75C40.4166 3.3335 45.8333 7.66683 45.8333 13.0002V27.0002C45.8333 29.5639 44.5602 32.0227 42.2942 33.8355C40.0281 35.6484 36.9547 36.6668 33.75 36.6668H16.25C9.58329 36.6668 4.16663 32.3335 4.16663 27.0002V13.0002C4.16663 10.4364 5.43969 7.97765 7.70575 6.1648C9.97182 4.35195 13.0453 3.3335 16.25 3.3335ZM15.8333 6.66683C13.8442 6.66683 11.9365 7.29897 10.53 8.42419C9.12347 9.54941 8.33329 11.0755 8.33329 12.6668V27.3335C8.33329 30.6502 11.6875 33.3335 15.8333 33.3335H34.1666C36.1558 33.3335 38.0634 32.7014 39.4699 31.5761C40.8765 30.4509 41.6666 28.9248 41.6666 27.3335V12.6668C41.6666 9.35016 38.3125 6.66683 34.1666 6.66683H15.8333ZM35.9375 9.16683C36.6281 9.16683 37.2905 9.38632 37.7789 9.77702C38.2673 10.1677 38.5416 10.6976 38.5416 11.2502C38.5416 11.8027 38.2673 12.3326 37.7789 12.7233C37.2905 13.114 36.6281 13.3335 35.9375 13.3335C35.2468 13.3335 34.5844 13.114 34.096 12.7233C33.6077 12.3326 33.3333 11.8027 33.3333 11.2502C33.3333 10.6976 33.6077 10.1677 34.096 9.77702C34.5844 9.38632 35.2468 9.16683 35.9375 9.16683ZM25 11.6668C27.7626 11.6668 30.4122 12.5448 32.3657 14.1076C34.3192 15.6704 35.4166 17.79 35.4166 20.0002C35.4166 22.2103 34.3192 24.3299 32.3657 25.8927C30.4122 27.4555 27.7626 28.3335 25 28.3335C22.2373 28.3335 19.5878 27.4555 17.6343 25.8927C15.6808 24.3299 14.5833 22.2103 14.5833 20.0002C14.5833 17.79 15.6808 15.6704 17.6343 14.1076C19.5878 12.5448 22.2373 11.6668 25 11.6668ZM25 15.0002C23.3424 15.0002 21.7526 15.5269 20.5805 16.4646C19.4084 17.4023 18.75 18.6741 18.75 20.0002C18.75 21.3262 19.4084 22.598 20.5805 23.5357C21.7526 24.4734 23.3424 25.0002 25 25.0002C26.6576 25.0002 28.2473 24.4734 29.4194 23.5357C30.5915 22.598 31.25 21.3262 31.25 20.0002C31.25 18.6741 30.5915 17.4023 29.4194 16.4646C28.2473 15.5269 26.6576 15.0002 25 15.0002Z" fill="white"/>
</svg>
