<svg width="105" height="85" viewBox="0 0 105 85" fill="none" xmlns="http://www.w3.org/2000/svg">
<path d="M42.2656 58.9368H63.1234V52.6221H56.1708V23.1537H49.9786L41.9397 32.1653L46.1221 37.4275C47.643 35.805 48.6388 34.5552 49.1096 33.6781H49.2182V52.6221H42.2656V58.9368ZM70.076 42.0977C70.076 45.1673 69.6958 48.2808 68.9353 51.4381C68.1749 54.5954 67.0976 57.5335 65.7034 60.2523C64.3093 62.9711 62.4716 65.1856 60.1903 66.8958C57.9089 68.6061 55.4104 69.4612 52.6945 69.4612C49.9786 69.4612 47.4801 68.6061 45.1987 66.8958C42.9174 65.1856 41.0797 62.9711 39.6855 60.2523C38.2914 57.5335 37.2141 54.5954 36.4537 51.4381C35.6932 48.2808 35.313 45.1673 35.313 42.0977C35.313 39.0281 35.6932 35.9146 36.4537 32.7573C37.2141 29.5999 38.2914 26.6619 39.6855 23.9431C41.0797 21.2242 42.9174 19.0097 45.1987 17.2995C47.4801 15.5893 49.9786 14.7342 52.6945 14.7342C55.4104 14.7342 57.9089 15.5893 60.1903 17.2995C62.4716 19.0097 64.3093 21.2242 65.7034 23.9431C67.0976 26.6619 68.1749 29.5999 68.9353 32.7573C69.6958 35.9146 70.076 39.0281 70.076 42.0977ZM97.8863 58.9368V25.2586C94.0479 25.2586 90.7708 23.6142 88.055 20.3253C85.3391 17.0364 83.9812 13.0678 83.9812 8.41954H21.4078C21.4078 13.0678 20.0499 17.0364 17.334 20.3253C14.6182 23.6142 11.3411 25.2586 7.50264 25.2586V58.9368C11.3411 58.9368 14.6182 60.5812 17.334 63.8701C20.0499 67.159 21.4078 71.1275 21.4078 75.7758H83.9812C83.9812 71.1275 85.3391 67.159 88.055 63.8701C90.7708 60.5812 94.0479 58.9368 97.8863 58.9368ZM104.839 4.20977V79.9856C104.839 81.1257 104.495 82.1124 103.807 82.9456C103.119 83.7788 102.304 84.1954 101.363 84.1954H4.02635C3.08485 84.1954 2.27009 83.7788 1.58207 82.9456C0.894057 82.1124 0.550049 81.1257 0.550049 79.9856V4.20977C0.550049 3.06962 0.894057 2.08296 1.58207 1.24977C2.27009 0.416592 3.08485 0 4.02635 0H101.363C102.304 0 103.119 0.416592 103.807 1.24977C104.495 2.08296 104.839 3.06962 104.839 4.20977Z" fill="#E4CCCC"/>
</svg>
