<svg width="50" height="40" viewBox="0 0 50 40" fill="none" xmlns="http://www.w3.org/2000/svg">
<path d="M25 0C11.1937 0 0 8.955 0 20C0 31.045 11.1937 40 25 40C38.8062 40 50 31.045 50 20C50 8.955 38.8062 0 25 0ZM37.2792 13.7017L33.175 29.1683C32.8729 30.265 32.0562 30.5317 30.9167 30.015L24.6667 26.3317L21.6542 28.655C21.5066 28.8079 21.3172 28.9317 21.1005 29.0169C20.8838 29.1021 20.6456 29.1465 20.4042 29.1467H20.3937L20.8375 24.0567L32.4208 15.6867C32.9208 15.3317 32.3083 15.13 31.6437 15.485L17.3333 22.695L11.1667 21.155C9.83333 20.8167 9.79583 20.0883 11.4479 19.565L35.5438 12.135C36.6646 11.8083 37.6396 12.3483 37.2771 13.7033L37.2792 13.7017Z" fill="#FFFCFC"/>
</svg>
