<svg width="60" height="40" viewBox="0 0 60 40" fill="none" xmlns="http://www.w3.org/2000/svg">
<path d="M25 28.5714L37.975 20L25 11.4286V28.5714ZM53.9 6.2C54.225 7.54286 54.45 9.34286 54.6 11.6286C54.775 13.9143 54.85 15.8857 54.85 17.6L55 20C55 26.2571 54.6 30.8571 53.9 33.8C53.275 36.3714 51.825 38.0286 49.575 38.7429C48.4 39.1143 46.25 39.3714 42.95 39.5429C39.7 39.7429 36.725 39.8286 33.975 39.8286L30 40C19.525 40 13 39.5429 10.425 38.7429C8.175 38.0286 6.725 36.3714 6.1 33.8C5.775 32.4571 5.55 30.6571 5.4 28.3714C5.225 26.0857 5.15 24.1143 5.15 22.4L5 20C5 13.7429 5.4 9.14286 6.1 6.2C6.725 3.62857 8.175 1.97143 10.425 1.25714C11.6 0.885714 13.75 0.628571 17.05 0.457142C20.3 0.257142 23.275 0.171428 26.025 0.171428L30 0C40.475 0 47 0.457143 49.575 1.25714C51.825 1.97143 53.275 3.62857 53.9 6.2Z" fill="white"/>
</svg>
